<?xml version="1.0" encoding="UTF-8"?>
<svg id="Capa_1" xmlns="http://www.w3.org/2000/svg" version="1.1" viewBox="0 0 1366 210">
  <!-- Generator: Adobe Illustrator 29.8.2, SVG Export Plug-In . SVG Version: 2.1.1 Build 3)  -->
  <defs>
    <style>
      .st0 {
        fill: #ed6722;
      }

      .st1 {
        fill: #231f20;
      }
    </style>
  </defs>
  <path class="st1" d="M438.45,79.24c-3.5,0-6.79.65-9.88,1.93-3.08,1.29-5.88,3.17-8.39,5.66v-6.45h-9.9l-.03,70.79h9.79l.03-24.61c2.64,2.58,5.53,4.51,8.69,5.8,3.15,1.29,6.57,1.94,10.27,1.94,4.16,0,7.86-.67,11.11-1.99,3.25-1.32,6.24-3.37,8.99-6.14,2.54-2.58,4.48-5.52,5.83-8.83,1.36-3.31,2.03-6.79,2.03-10.46,0-7.93-2.71-14.52-8.12-19.77-5.41-5.25-12.23-7.88-20.44-7.88ZM451.31,119.81c-3.66,3.52-8.05,5.27-13.17,5.27s-9.33-1.83-12.94-5.49c-3.61-3.66-5.42-8.09-5.42-13.28,0-4.84,1.84-9.06,5.51-12.68,3.68-3.61,7.93-5.42,12.74-5.42,5.25,0,9.68,1.8,13.32,5.4,3.62,3.6,5.44,8.06,5.44,13.37,0,5.03-1.83,9.3-5.5,12.82ZM308.14,86.83c-2.74-2.67-5.8-4.69-9.18-6.06-3.38-1.37-7.05-2.05-11.01-2.05-3.69,0-7.26.77-10.69,2.3-3.44,1.52-6.52,3.71-9.26,6.54-2.54,2.58-4.46,5.48-5.77,8.71-1.3,3.23-1.95,6.71-1.95,10.44s.72,7.06,2.15,10.48c1.44,3.43,3.42,6.42,5.96,9,2.67,2.71,5.69,4.76,9.06,6.14,3.37,1.38,7.04,2.08,11.04,2.08s7.57-.76,11.01-2.27c3.45-1.51,6.56-3.73,9.33-6.66,2.41-2.55,4.28-5.52,5.62-8.93,1.34-3.41,2.01-6.91,2.01-10.51s-.72-6.95-2.15-10.27c-1.44-3.31-3.49-6.29-6.16-8.93ZM301.19,119.71c-3.42,3.52-7.65,5.28-12.7,5.28s-9.45-1.75-12.89-5.25c-3.45-3.5-5.17-7.88-5.17-13.13s1.72-9.69,5.17-13.21c3.45-3.52,7.71-5.28,12.79-5.28s9.38,1.73,12.8,5.2c3.41,3.47,5.12,7.86,5.12,13.18s-1.71,9.69-5.12,13.2ZM226.63,88.22c3.76,0,6.99.8,9.7,2.39,2.71,1.59,4.92,3.99,6.63,7.21h10.74c-2.08-6.01-5.41-10.69-10-14.01-4.59-3.33-10-4.99-16.23-4.99-3.99,0-7.74.75-11.23,2.25-3.5,1.5-6.65,3.69-9.45,6.59-2.54,2.64-4.46,5.56-5.77,8.76-1.3,3.2-1.95,6.63-1.95,10.29s.72,7.06,2.16,10.48c1.43,3.43,3.42,6.42,5.96,9,2.67,2.71,5.66,4.74,8.96,6.09,3.3,1.35,6.98,2.03,11.04,2.03,6.43,0,11.89-1.63,16.38-4.89,4.49-3.27,7.87-8.07,10.15-14.4h-10.74c-1.55,3.18-3.71,5.64-6.48,7.37-2.77,1.74-5.88,2.61-9.3,2.61-5.11,0-9.39-1.75-12.82-5.25-3.43-3.5-5.15-7.88-5.15-13.13s1.69-9.55,5.07-13.09c3.38-3.53,7.5-5.3,12.35-5.3ZM379.7,79.53c-4,0-7.39.75-10.17,2.24-2.78,1.5-5.01,3.78-6.69,6.83-1.68-3.12-3.83-5.41-6.46-6.88-2.63-1.46-5.92-2.2-9.87-2.2-2.92,0-5.53.58-7.82,1.74-2.29,1.16-4.33,2.92-6.14,5.28v-6.16h-8.71v52.53h9.3v-26.89c0-6.11,1-10.62,3.01-13.54,2-2.91,5.11-4.37,9.31-4.37s7.05,1.45,8.92,4.35c1.87,2.9,2.81,7.55,2.81,13.94v26.5h9.5v-27.46c0-6.27.93-10.73,2.78-13.37,1.86-2.64,4.9-3.96,9.15-3.96,3.64,0,6.48,1.24,8.52,3.72,2.04,2.48,3.06,5.97,3.06,10.46v30.61h9.85v-32.09c0-6.46-1.85-11.63-5.56-15.49-3.71-3.87-8.64-5.8-14.79-5.8ZM673.33,86.73c-2.58-2.58-5.43-4.5-8.56-5.77-3.14-1.27-6.57-1.91-10.29-1.91-4.15,0-7.86.66-11.11,1.98-3.25,1.32-6.25,3.37-8.99,6.14-2.51,2.52-4.44,5.43-5.8,8.74-1.35,3.31-2.02,6.81-2.02,10.51,0,7.93,2.7,14.53,8.11,19.79,5.41,5.27,12.21,7.9,20.39,7.9,3.49,0,6.79-.65,9.87-1.94,3.09-1.29,5.88-3.19,8.39-5.71v6.45h9.9v-52.53h-9.9v6.35ZM668.3,119.67c-3.68,3.61-7.92,5.42-12.75,5.42-5.27,0-9.74-1.79-13.38-5.39-3.65-3.6-5.47-8.05-5.47-13.37s1.82-9.34,5.47-12.84c3.64-3.5,8.04-5.25,13.19-5.25s9.34,1.84,12.99,5.51c3.64,3.68,5.47,8.09,5.47,13.25,0,4.84-1.84,9.07-5.52,12.68ZM709.26,81.27c-2.1,1.13-3.95,2.86-5.57,5.18v-6.07h-9.21v52.53h9.8v-29.23c0-4.84.95-8.35,2.85-10.53,1.89-2.18,5.04-3.43,9.43-3.75v-9.88c-2.77.03-5.2.61-7.3,1.74ZM609.33,102.11c-.86-.32-2.03-.75-3.51-1.29-5.28-1.88-7.92-4.28-7.92-7.21,0-1.72.58-3.16,1.75-4.32,1.18-1.16,2.63-1.74,4.38-1.74,1.95,0,3.5.54,4.65,1.62,1.15,1.08,1.82,2.6,1.98,4.54h9.4c-.27-4.74-1.77-8.43-4.51-11.05-2.74-2.63-6.43-3.94-11.08-3.94s-8.23,1.5-11.31,4.49c-3.09,2.99-4.63,6.62-4.63,10.89,0,2.48.46,4.67,1.38,6.57.92,1.89,2.36,3.59,4.3,5.09,1.06.83,3.52,1.94,7.38,3.34,1.45.51,2.57.92,3.36,1.24,2.31.89,3.98,1.97,5.03,3.25,1.03,1.27,1.55,2.84,1.55,4.68,0,2.1-.73,3.83-2.2,5.18-1.47,1.35-3.35,2.03-5.62,2.03-2.41,0-4.41-.9-6.01-2.7-1.6-1.8-2.4-4.08-2.4-6.85h-9.21c.3,5.7,2,10.19,5.1,13.47,3.1,3.28,7.18,4.92,12.22,4.92s9.17-1.56,12.47-4.68c3.3-3.12,4.95-7.04,4.95-11.75,0-4.04-.88-7.28-2.65-9.69-1.76-2.42-4.72-4.44-8.88-6.06ZM522.49,88.88c-2.68-2.59-5.34-4.64-7.96-6.13-2.62-1.49-5.37-2.55-8.24-3.15-4.71-.9-9.31-.71-13.79.57-4.48,1.28-8.41,3.55-11.8,6.82-2.84,2.75-4.94,5.79-6.28,9.13-1.34,3.34-1.92,6.95-1.73,10.82.13,3.6.93,6.98,2.36,10.15,1.44,3.16,3.5,6.05,6.21,8.66,2.61,2.52,5.68,4.5,9.2,5.94,3.52,1.44,7.12,2.21,10.81,2.3,3.92.09,7.56-.51,10.92-1.83,2.66-1.04,5.16-2.54,7.51-4.48v-13.62c0,.18-.01.28-.01.32,0-.16-.05-.89-.48-.23-1.66,2.51-2.31,3.08-4.6,5.29-3.2,3.09-6.96,4.78-11.27,5.1-4.31.31-8.37-.8-12.18-3.34l32.41-31.27-1.08-1.05ZM485.14,114.98c-2.23-3.78-3.13-7.61-2.69-11.48.44-3.87,2.18-7.27,5.22-10.2,2.96-2.86,6.38-4.47,10.23-4.85,3.86-.37,7.81.56,11.85,2.79l-24.6,23.74ZM556.28,79.53c-3.16,0-5.98.55-8.44,1.65-2.46,1.1-4.71,2.83-6.76,5.18v-5.97h-9.4v52.53h9.8v-23.87c0-7.3,1.1-12.52,3.29-15.69,2.19-3.17,5.73-4.75,10.61-4.75,4.49,0,7.81,1.34,9.95,4.03,2.15,2.69,3.22,6.82,3.22,12.39v27.89h9.84v-29.94c0-7.54-1.9-13.34-5.72-17.38-3.81-4.04-9.28-6.06-16.41-6.06ZM878.05,33.26h-10.38v47.13h-6.41v-47.13h-8.96v-5.39h8.96v-4.78c-.1-9.06,2.44-15.37,12.72-15.37,1.83,0,3.36.1,5.39.41v5.5c-1.73-.31-3.15-.51-4.68-.51-7.12,0-6.92,4.48-7.02,10.18v4.58h10.38v5.39ZM926.7,80.38h-5.9v-9.47h-.2c-3.36,7.02-10.28,10.99-18.12,10.99-13.23,0-18.42-7.74-18.42-19.95V27.86h6.41v34.2c.31,9.47,3.87,14.45,14.05,14.45,10.99,0,15.78-10.38,15.78-21.07v-27.58h6.41v52.52ZM938.71,27.86h6.41v9.06h.2c2.34-6.31,9.36-10.59,16.8-10.59,14.76,0,19.24,7.74,19.24,20.26v33.79h-6.41v-32.78c0-9.06-2.95-15.88-13.33-15.88s-16.29,7.74-16.49,18.02v30.64h-6.41V27.86ZM1039.68,80.38h-5.9v-9.98h-.2c-2.75,6.82-11.1,11.5-18.73,11.5-15.98,0-23.61-12.93-23.61-27.79s7.63-27.79,23.61-27.79c7.84,0,15.47,3.97,18.22,11.5h.2V7.71h6.41v72.68ZM1014.84,76.52c13.64,0,18.42-11.5,18.42-22.39s-4.78-22.39-18.42-22.39c-12.21,0-17.2,11.5-17.2,22.39s4.99,22.39,17.2,22.39ZM1051.28,43.94c.61-12.32,9.26-17.61,21.27-17.61,9.26,0,19.34,2.85,19.34,16.9v27.89c0,2.44,1.22,3.87,3.76,3.87.71,0,1.53-.2,2.04-.41v5.39c-1.43.31-2.44.41-4.17.41-6.51,0-7.53-3.66-7.53-9.16h-.2c-4.48,6.82-9.06,10.69-19.14,10.69s-17.61-4.78-17.61-15.37c0-14.76,14.35-15.27,28.2-16.9,5.29-.61,8.25-1.32,8.25-7.13,0-8.65-6.21-10.79-13.74-10.79-7.94,0-13.84,3.66-14.05,12.21h-6.41ZM1085.48,51.68h-.2c-.81,1.53-3.66,2.04-5.4,2.34-10.89,1.93-24.43,1.83-24.43,12.11,0,6.41,5.7,10.38,11.71,10.38,9.77,0,18.42-6.21,18.32-16.49v-8.35ZM1141.77,44.35c-1.73-7.84-6.51-12.62-14.86-12.62-12.32,0-18.42,11.2-18.42,22.39s6.11,22.39,18.42,22.39c7.94,0,14.45-6.21,15.27-14.96h6.41c-1.73,12.62-9.97,20.36-21.68,20.36-16.08,0-24.83-12.72-24.83-27.79s8.75-27.79,24.83-27.79c11.2,0,19.85,6.01,21.27,18.02h-6.41ZM1157.65,7.71h6.41v10.28h-6.41V7.71ZM1157.65,27.86h6.41v52.52h-6.41V27.86ZM1223.4,54.12c0,15.06-8.75,27.79-24.84,27.79s-24.83-12.72-24.83-27.79,8.75-27.79,24.83-27.79,24.84,12.72,24.84,27.79ZM1180.14,54.12c0,11.2,6.11,22.39,18.42,22.39s18.42-11.2,18.42-22.39-6.11-22.39-18.42-22.39-18.42,11.2-18.42,22.39ZM1197.75,20.53h-5.19l10.69-14.35h7.94l-13.44,14.35ZM1232.87,27.86h6.41v9.06h.2c2.34-6.31,9.36-10.59,16.8-10.59,14.76,0,19.24,7.74,19.24,20.26v33.79h-6.41v-32.78c0-9.06-2.95-15.88-13.33-15.88s-16.29,7.74-16.49,18.02v30.64h-6.41V27.86ZM894.95,185.44h-5.9v-9.47h-.2c-3.36,7.02-10.28,10.99-18.12,10.99-13.23,0-18.42-7.74-18.42-19.95v-34.1h6.41v34.2c.31,9.47,3.87,14.45,14.05,14.45,10.99,0,15.78-10.38,15.78-21.07v-27.58h6.41v52.52ZM906.96,132.92h6.41v9.06h.2c2.34-6.31,9.36-10.59,16.8-10.59,14.76,0,19.24,7.74,19.24,20.26v33.79h-6.41v-32.78c0-9.06-2.95-15.88-13.33-15.88s-16.29,7.74-16.49,18.02v30.64h-6.41v-52.52ZM961.82,112.77h6.41v10.28h-6.41v-10.28ZM961.82,132.92h6.41v52.52h-6.41v-52.52ZM974.64,132.92h7.12l16.49,46.11h.2l16.29-46.11h6.62l-19.65,52.52h-6.82l-20.26-52.52ZM1031.44,160.91c.1,9.36,4.99,20.66,17.3,20.66,9.36,0,14.45-5.5,16.49-13.44h6.41c-2.75,11.91-9.67,18.83-22.9,18.83-16.69,0-23.72-12.83-23.72-27.79,0-13.84,7.02-27.79,23.72-27.79s23.61,14.76,23.11,29.52h-40.41ZM1065.44,155.52c-.3-9.67-6.31-18.73-16.69-18.73s-16.29,9.16-17.3,18.73h34ZM1080.5,132.92h5.9v12.32h.2c3.26-8.45,10.38-13.44,19.85-13.03v6.41c-11.6-.61-19.54,7.94-19.54,18.83v27.99h-6.41v-52.52ZM1144.01,148.29c-.31-7.94-6.41-11.5-13.74-11.5-5.7,0-12.42,2.24-12.42,9.06,0,5.7,6.51,7.74,10.89,8.86l8.55,1.93c7.33,1.12,14.96,5.4,14.96,14.56,0,11.4-11.3,15.78-21.07,15.78-12.21,0-20.56-5.7-21.58-18.53h6.41c.51,8.65,6.92,13.13,15.47,13.13,6.01,0,14.35-2.65,14.35-9.98,0-6.11-5.7-8.14-11.5-9.57l-8.25-1.83c-8.35-2.24-14.66-5.09-14.66-14.05,0-10.69,10.48-14.76,19.75-14.76,10.49,0,18.83,5.5,19.24,16.9h-6.41ZM1161.62,112.77h6.41v10.28h-6.41v-10.28ZM1161.62,132.92h6.41v52.52h-6.41v-52.52ZM1190.53,132.92h10.69v5.39h-10.69v35.42c0,4.17.61,6.62,5.19,6.92,1.83,0,3.66-.1,5.5-.3v5.5c-1.93,0-3.77.2-5.7.2-8.55,0-11.5-2.85-11.4-11.81v-35.93h-9.16v-5.39h9.16v-15.78h6.41v15.78ZM1209.87,149c.61-12.32,9.26-17.61,21.27-17.61,9.26,0,19.34,2.85,19.34,16.9v27.89c0,2.44,1.22,3.87,3.77,3.87.71,0,1.53-.2,2.03-.41v5.39c-1.42.31-2.44.41-4.17.41-6.51,0-7.53-3.66-7.53-9.16h-.2c-4.48,6.82-9.06,10.69-19.14,10.69s-17.61-4.78-17.61-15.37c0-14.76,14.35-15.27,28.2-16.9,5.29-.61,8.24-1.32,8.24-7.13,0-8.65-6.21-10.79-13.74-10.79-7.94,0-13.84,3.66-14.05,12.21h-6.41ZM1244.07,156.74h-.2c-.81,1.53-3.66,2.04-5.4,2.34-10.89,1.93-24.43,1.83-24.43,12.11,0,6.41,5.7,10.38,11.71,10.38,9.77,0,18.42-6.21,18.32-16.49v-8.35ZM1263.3,132.92h5.9v12.32h.2c3.26-8.45,10.38-13.44,19.85-13.03v6.41c-11.6-.61-19.54,7.94-19.54,18.83v27.99h-6.41v-52.52ZM1295.47,112.77h6.41v10.28h-6.41v-10.28ZM1295.47,132.92h6.41v52.52h-6.41v-52.52ZM1313.59,149c.61-12.32,9.26-17.61,21.27-17.61,9.26,0,19.34,2.85,19.34,16.9v27.89c0,2.44,1.22,3.87,3.77,3.87.71,0,1.53-.2,2.03-.41v5.39c-1.42.31-2.44.41-4.17.41-6.51,0-7.53-3.66-7.53-9.16h-.2c-4.48,6.82-9.06,10.69-19.14,10.69s-17.61-4.78-17.61-15.37c0-14.76,14.35-15.27,28.2-16.9,5.29-.61,8.24-1.32,8.24-7.13,0-8.65-6.21-10.79-13.74-10.79-7.94,0-13.84,3.66-14.05,12.21h-6.41ZM1347.79,156.74h-.2c-.81,1.53-3.66,2.04-5.4,2.34-10.89,1.93-24.43,1.83-24.43,12.11,0,6.41,5.7,10.38,11.71,10.38,9.77,0,18.42-6.21,18.32-16.49v-8.35Z"/>
  <path class="st0" d="M102.03,74.31h0c17.86,0,32.34,14.48,32.34,32.34h0c0,17.86-14.48,32.34-32.34,32.34h0c-17.86,0-32.34-14.48-32.34-32.34h0c0-17.86,14.48-32.34,32.34-32.34ZM102.03,74.31h0c17.86,0,32.34-14.48,32.34-32.34h0c0-17.86-14.48-32.34-32.34-32.34h0c-17.86,0-32.34,14.48-32.34,32.34h0c0,17.86,14.48,32.34,32.34,32.34ZM199.06,41.96h0c0-17.86-14.48-32.34-32.34-32.34h0c-17.86,0-32.34,14.48-32.34,32.34h0c0,17.86,14.48,32.34,32.34,32.34h0c17.86,0,32.34-14.48,32.34-32.34ZM37.34,74.31h0c-17.86,0-32.34,14.48-32.34,32.34h0c0,17.86,14.48,32.34,32.34,32.34h0c17.86,0,32.34-14.48,32.34-32.34h0c0-17.86-14.48-32.34-32.34-32.34ZM102.03,203.68h0c17.86,0,32.34-14.48,32.34-32.34h0c0-17.86-14.48-32.34-32.34-32.34h0c-17.86,0-32.34,14.48-32.34,32.34h0c0,17.86,14.48,32.34,32.34,32.34ZM199.06,171.34h0c0-17.86-14.48-32.34-32.34-32.34h0c-17.86,0-32.34,14.48-32.34,32.34h0c0,17.86,14.48,32.34,32.34,32.34h0c17.86,0,32.34-14.48,32.34-32.34ZM781.14,204.11h6.46V10.05h-6.46v194.06Z"/>
</svg>