<?xml version="1.0" encoding="UTF-8"?>
<svg id="Capa_1" xmlns="http://www.w3.org/2000/svg" version="1.1" viewBox="0 0 1057.26 1254.77">
  <!-- Generator: Adobe Illustrator 29.8.2, SVG Export Plug-In . SVG Version: 2.1.1 Build 3)  -->
  <defs>
    <style>
      .st0 {
        fill: #ed6722;
      }

      .st1 {
        fill: #231f20;
      }
    </style>
  </defs>
  <path class="st0" d="M464.02,145.01h0c33.57,0,60.78,27.21,60.78,60.78h0c0,33.57-27.21,60.78-60.78,60.78h0c-33.57,0-60.78-27.21-60.78-60.78h0c0-33.57,27.21-60.78,60.78-60.78ZM464.02,145.01h0c33.57,0,60.78-27.21,60.78-60.78h0c0-33.57-27.21-60.78-60.78-60.78h0c-33.57,0-60.78,27.21-60.78,60.78h0c0,33.57,27.21,60.78,60.78,60.78ZM646.36,84.23h0c0-33.57-27.21-60.78-60.78-60.78h0c-33.57,0-60.78,27.21-60.78,60.78h0c0,33.57,27.21,60.78,60.78,60.78h0c33.57,0,60.78-27.21,60.78-60.78ZM342.46,145.01h0c-33.57,0-60.78,27.21-60.78,60.78h0c0,33.57,27.21,60.78,60.78,60.78h0c33.57,0,60.78-27.21,60.78-60.78h0c0-33.57-27.21-60.78-60.78-60.78ZM464.02,388.13h0c33.57,0,60.78-27.21,60.78-60.78h0c0-33.57-27.21-60.78-60.78-60.78h0c-33.57,0-60.78,27.21-60.78,60.78h0c0,33.57,27.21,60.78,60.78,60.78ZM646.36,327.35h0c0-33.57-27.21-60.78-60.78-60.78h0c-33.57,0-60.78,27.21-60.78,60.78h0c0,33.57,27.21,60.78,60.78,60.78h0c33.57,0,60.78-27.21,60.78-60.78ZM37.86,752.56v11.23h971.59v-11.23H37.86Z"/>
  <path class="st1" d="M488.41,507.52c-6.58,0-12.76,1.21-18.56,3.64-5.79,2.42-16.4,10.63-16.4,10.63v-10.72h-19.66l-.05,131.98h19.71v-46.59c5.42,4.84,10.85,8.47,16.78,10.9,5.92,2.42,12.35,3.64,19.3,3.64,7.81,0,14.77-1.25,20.89-3.73,6.1-2.48,11.73-6.32,16.88-11.54,4.76-4.84,8.42-10.38,10.96-16.6,2.55-6.22,3.82-12.77,3.82-19.65,0-14.9-5.09-27.28-15.25-37.15-10.17-9.87-22.98-14.81-38.41-14.81ZM512.59,583.75c-6.88,6.61-15.13,9.91-24.74,9.91s-17.53-3.43-24.31-10.31c-6.79-6.88-10.18-15.2-10.18-24.95,0-9.09,3.45-17.03,10.36-23.82,6.91-6.79,14.9-10.18,23.95-10.18,9.86,0,18.2,3.38,25.03,10.14,6.81,6.76,10.23,15.14,10.23,25.13,0,9.46-3.44,17.48-10.33,24.09ZM243.55,521.79c-5.15-5.03-10.89-8.82-17.25-11.39-6.36-2.57-13.25-3.86-20.7-3.86-6.94,0-13.64,1.44-20.08,4.31-6.46,2.86-12.25,6.96-17.4,12.29-4.78,4.85-8.39,10.31-10.83,16.37-2.44,6.07-3.67,12.6-3.67,19.61s1.35,13.26,4.05,19.69c2.7,6.44,6.43,12.07,11.21,16.91,5.02,5.08,10.7,8.94,17.02,11.54,6.33,2.6,13.23,3.91,20.74,3.91s14.22-1.43,20.69-4.27c6.47-2.84,12.32-7.01,17.53-12.52,4.52-4.79,8.04-10.38,10.55-16.78,2.51-6.4,3.77-12.98,3.77-19.74s-1.35-13.07-4.04-19.29c-2.7-6.22-6.56-11.81-11.58-16.78ZM230.48,583.57c-6.42,6.61-14.38,9.92-23.86,9.92s-17.75-3.29-24.23-9.87c-6.48-6.58-9.72-14.81-9.72-24.68s3.24-18.2,9.72-24.81c6.48-6.61,14.49-9.91,24.04-9.91s17.63,3.26,24.05,9.78c6.41,6.52,9.63,14.77,9.63,24.77s-3.21,18.21-9.63,24.81ZM90.4,523.15c7.37,0,13.71,1.57,19.01,4.68,5.3,3.12,9.64,7.83,12.99,14.13h21.05c-4.07-11.79-10.61-20.94-19.59-27.46-8.99-6.52-19.6-9.78-31.82-9.78-7.82,0-15.16,1.47-22.01,4.4-6.86,2.93-13.04,7.23-18.53,12.91-4.98,5.18-8.75,10.9-11.3,17.17-2.55,6.27-3.83,12.99-3.83,20.17s1.41,13.83,4.22,20.54c2.81,6.72,6.7,12.59,11.69,17.64,5.24,5.3,11.09,9.29,17.55,11.94,6.46,2.65,13.68,3.99,21.63,3.99,12.61,0,23.31-3.2,32.11-9.59,8.79-6.41,15.43-15.81,19.88-28.22h-21.05c-3.04,6.24-7.27,11.06-12.71,14.45-5.44,3.4-11.51,5.11-18.23,5.11-10.02,0-18.4-3.43-25.13-10.29-6.73-6.86-10.09-15.44-10.09-25.73s3.31-18.72,9.94-25.65c6.62-6.93,14.69-10.39,24.21-10.39ZM378.86,509.03c-7.49,0-13.83,1.41-19.04,4.21-5.2,2.81-9.37,7.1-12.53,12.84-3.14-5.87-7.17-10.17-12.1-12.93-4.93-2.75-11.08-4.13-18.47-4.13-5.47,0-10.35,1.09-14.63,3.28-4.28,2.18-8.11,5.49-11.49,9.91v-11.15h-16.85v98.28h16.85v-50.52c0-11.48,1.87-19.97,5.62-25.44,3.74-5.47,9.54-8.21,17.4-8.21s13.17,2.72,16.67,8.17c3.5,5.44,5.24,14.18,5.24,26.2v49.8h16.85v-51.6c0-11.78,1.77-20.16,5.32-25.12,3.55-4.96,9.37-7.45,17.48-7.45,6.97,0,12.39,2.33,16.28,7,3.89,4.67,5.85,11.21,5.85,19.65v57.52h19.66v-60.3c0-12.15-3.47-21.86-10.4-29.12-6.94-7.27-16.17-10.91-27.69-10.91ZM928.01,522.95c-5.12-4.82-10.79-8.42-17.01-10.8-6.23-2.38-13.05-3.57-20.44-3.57-8.25,0-15.61,1.23-22.06,3.71-6.46,2.47-12.41,6.3-17.84,11.48-4.98,4.71-8.81,10.15-11.51,16.35-2.68,6.19-4.01,12.74-4.01,19.66,0,14.83,5.37,27.18,16.11,37.03,10.75,9.86,24.24,14.79,40.5,14.79,6.94,0,13.48-1.21,19.6-3.62,6.13-2.41,11.68-5.97,16.67-10.68v12.07h19.66v-98.28h-19.66v11.88ZM920.34,583.49c-6.91,6.79-14.89,10.18-23.95,10.18-9.91,0-18.3-3.37-25.15-10.13-6.85-6.77-10.28-15.13-10.28-25.13s3.42-17.55,10.28-24.14c6.85-6.58,15.11-9.87,24.79-9.87s17.56,3.46,24.41,10.36c6.85,6.91,10.27,15.21,10.27,24.9,0,9.09-3.46,17.04-10.37,23.83ZM996.71,511.57c-3.66,1.97-6.9,4.99-9.72,9.05v-9.55h-16.85v98.28h16.85v-54.92c0-9.09,1.74-15.69,5.21-19.78,3.47-4.1,9.22-6.44,17.25-7.05v-19.08c-4.84.06-9.09,1.07-12.74,3.04ZM809.64,549.48c-1.64-.6-3.85-1.42-6.66-2.44-10.02-3.56-15.02-8.12-15.02-13.68,0-3.26,1.11-5.99,3.32-8.2,2.23-2.21,5-3.31,8.31-3.31,3.7,0,6.64,1.03,8.83,3.08,2.19,2.06,3.45,4.92,3.76,8.61h17.84c-.51-9-3.35-15.99-8.55-20.97-5.19-4.98-12.2-7.48-21.02-7.48s-15.6,2.84-21.45,8.52c-5.86,5.68-8.78,12.56-8.78,20.65,0,4.71.87,8.86,2.63,12.46,1.75,3.59,4.48,6.81,8.16,9.65,2.01,1.57,6.67,3.68,14,6.34,2.74.96,4.88,1.75,6.38,2.35,4.38,1.69,7.56,3.74,9.54,6.16,1.96,2.42,2.95,5.38,2.95,8.88,0,3.98-1.38,7.27-4.17,9.83-2.76,2.53-6.27,3.82-10.51,3.85-3.74.02-7.47-1.26-10.23-3.78-3.93-3.59-5.88-8.37-5.88-14.33h-17.46c.56,10.81,3.79,19.32,9.68,25.55,5.88,6.22,13.61,9.33,23.18,9.33s17.39-2.96,23.66-8.89c6.26-5.91,9.39-13.35,9.39-22.28,0-7.67-1.66-13.8-5.02-18.39-3.35-4.59-8.96-8.43-16.85-11.5ZM646.82,525.64c-5.04-4.87-10.03-8.71-14.96-11.52-4.92-2.81-10.1-4.79-15.49-5.93-8.85-1.69-17.49-1.33-25.9,1.08-8.42,2.41-15.81,6.68-22.17,12.81-5.34,5.16-9.28,10.89-11.81,17.17-2.52,6.29-3.6,13.07-3.24,20.34.25,6.77,1.74,13.12,4.43,19.07,2.7,5.93,6.59,11.37,11.68,16.28,4.91,4.74,10.68,8.46,17.3,11.16,6.62,2.71,13.39,4.15,20.32,4.32,7.36.17,14.2-.97,20.52-3.43,5.01-1.95,9.7-4.78,14.1-8.43v-25.59c-.01.35-.02.53-.02.61,0-.31-.09-1.67-.9-.44-3.11,4.72-4.34,5.78-8.64,9.93-6.02,5.81-13.07,8.99-21.19,9.59-8.11.59-15.74-1.51-22.88-6.28l60.89-58.75-2.04-1.96ZM576.16,574.68c-4.2-7.1-5.89-14.29-5.06-21.57.83-7.28,4.1-13.67,9.8-19.16,5.57-5.37,11.98-8.41,19.23-9.11,7.26-.69,14.68,1.06,22.26,5.23l-46.23,44.6ZM709.49,509.03c-5.95,0-11.25,1.03-15.87,3.1-4.63,2.06-8.86,5.31-12.71,9.74v-10.79h-16.85v98.28h16.85v-44.86c0-13.71,2.05-23.53,6.14-29.48,4.09-5.95,10.7-8.93,19.81-8.93,8.38,0,14.57,2.52,18.57,7.58,4.01,5.05,6.02,12.82,6.02,23.28v52.41h19.66v-56.27c0-14.18-3.58-25.06-10.75-32.66-7.17-7.59-17.45-11.39-30.87-11.39ZM169.84,929.47h-19.66v89.86h-11.23v-89.86h-16.85v-11.23h16.85v-8.99c-.19-17.02,4.54-28.88,23.66-28.88,3.41,0,6.25.19,10.03.77v11.89c-3.32-.59-6.06-.98-8.99-.98-13.67,0-13.28,8.59-13.48,19.53v6.66h19.66v11.23ZM262.5,1019.33h-11.23v-16.85h-.39c-6.42,13.28-19.64,20.79-34.61,20.79-25.28,0-35.2-14.63-35.2-37.73v-64.49h14.04v64.27c.58,17.79,7.28,27.16,26.45,27.16,20.7,0,29.71-19.51,29.71-39.6v-51.83h11.23v98.28ZM284.97,921.05h11.23v16.85h.38c4.35-11.83,17.42-19.83,31.23-19.83,27.45,0,35.78,14.49,35.78,37.95v63.32h-11.23v-61.59c0-17.02-5.56-29.84-25.11-29.84s-30.67,14.53-31.05,33.85v57.57h-11.23v-98.28ZM473.11,1019.33h-11.23v-19.66h.87c-5.16,13.08-20.85,21.88-35.19,21.88-30.03,0-44.38-24.29-44.38-52.22s14.34-52.22,44.38-52.22c14.73,0,29.07,7.46,34.24,20.78h2.9v-56.16h8.42v137.6ZM427.55,1011.42c25.63,0,34.62-21.61,34.62-42.08s-8.99-42.08-34.62-42.08c-22.95,0-32.33,21.61-32.33,42.08s9.37,42.08,32.33,42.08ZM492.77,951.94c1.18-22.82,17.93-32.63,41.18-32.63,17.93,0,37.44,5.28,37.44,31.31v51.68c0,4.53,2.36,7.17,7.29,7.17,1.38,0,2.96-.38,3.94-.75v10c-2.76.57-4.73.75-8.08.75-12.61,0-14.58-6.79-14.58-16.98h-.39c-8.67,12.64-17.54,19.8-37.04,19.8s-34.09-8.86-34.09-28.48c0-27.35,27.78-28.29,54.58-31.31,10.25-1.13,15.96-2.45,15.96-13.2,0-16.03-12.02-19.99-26.6-19.99-15.37,0-26.8,6.79-27.19,22.63h-12.41ZM560.16,965.98h-.38c-1.53,2.87-6.89,3.83-10.14,4.4-20.47,3.63-45.91,3.44-45.91,22.76,0,12.05,10.71,19.51,22,19.51,18.36,0,34.62-11.67,34.43-30.99v-15.69ZM667.37,949.13c-3.39-15.35-12.76-24.72-29.11-24.72-24.13,0-36.09,21.93-36.09,43.86s11.96,43.87,36.09,43.87c15.55,0,28.31-12.16,29.91-29.31h12.56c-3.39,24.72-19.54,39.88-42.47,39.88-31.5,0-48.65-24.92-48.65-54.43s17.15-54.43,48.65-54.43c21.93,0,38.88,11.76,41.67,35.29h-12.56ZM694.95,881.74h11.23v19.66h-11.23v-19.66ZM694.95,921.05h11.23v98.28h-11.23v-98.28ZM819.46,969.33c0,28.31-16.45,52.22-46.67,52.22s-46.67-23.91-46.67-52.22,16.45-52.22,46.67-52.22,46.67,23.91,46.67,52.22ZM738.17,969.33c0,21.04,11.48,42.08,34.62,42.08s34.62-21.04,34.62-42.08-11.48-42.08-34.62-42.08-34.62,21.04-34.62,42.08ZM770.94,907.01h-10.16l20.91-28.08h15.53l-26.29,28.08ZM838.16,921.05h11.23v16.85h.38c4.36-11.83,17.42-19.83,31.24-19.83,27.45,0,35.78,14.49,35.78,37.95v63.32h-11.23v-61.59c0-17.02-5.56-29.84-25.11-29.84s-30.67,14.53-31.05,33.85v57.57h-11.23v-98.28ZM133.33,1215.9h-11.23v-16.85h-.39c-6.42,13.28-19.64,20.79-34.62,20.79-25.28,0-35.2-14.63-35.2-37.73v-64.49h14.04v64.27c.57,17.79,7.28,27.16,26.45,27.16,20.7,0,29.71-19.51,29.71-39.6v-51.83h11.23v98.28ZM155.8,1117.61h11.23v16.85h.38c4.35-11.83,17.42-19.83,31.24-19.83,27.45,0,35.78,14.49,35.78,37.95v63.32h-11.23v-61.59c0-17.02-5.56-29.84-25.11-29.84s-30.67,14.53-31.05,33.85v57.57h-11.23v-98.28ZM259.69,1078.3h11.23v19.66h-11.23v-19.66ZM259.69,1117.61h11.23v98.28h-11.23v-98.28ZM282.66,1117.61h13.06l31.13,87.05h.38l30.75-87.05h12.1l-36.76,98.28h-12.76l-37.9-98.28ZM388.1,1170.97c.2,18.19,9.69,40.15,33.62,40.15,18.19,0,28.08-10.68,32.04-26.11h12.46c-5.34,23.14-18.79,36.59-44.49,36.59-32.43,0-46.08-24.92-46.08-53.99,0-26.9,13.65-53.99,46.08-53.99s45.88,28.67,44.89,57.35h-78.51ZM453.09,1159.73c-.57-18.17-11.86-35.19-31.37-35.19s-30.6,17.21-32.52,35.19h63.89ZM481.53,1117.61h11.23v22.46h-.57c6.08-15.88,19.39-25.25,37.08-24.48v12.05c-21.68-1.15-36.5,14.92-36.5,35.39v52.87h-11.23v-98.28ZM599.86,1145.69c-.55-14.38-11.62-20.83-24.89-20.83-10.32,0-22.49,4.05-22.49,16.41,0,10.32,11.8,14.01,19.73,16.04l15.49,3.5c13.27,2.03,27.1,9.77,27.1,26.36,0,20.65-20.46,28.58-38.16,28.58-22.12,0-37.24-10.32-39.08-33.55h11.62c.92,15.67,12.53,23.78,28.02,23.78,10.88,0,25.99-4.79,25.99-18.07,0-11.06-10.32-14.75-20.83-17.33l-14.93-3.32c-15.12-4.05-26.55-9.22-26.55-25.44,0-19.36,18.99-26.73,35.76-26.73,18.99,0,34.11,9.95,34.85,30.6h-11.61ZM633.17,1078.3h11.23v19.66h-11.23v-19.66ZM633.17,1117.61h11.23v98.28h-11.23v-98.28ZM686.52,1117.61h22.46v11.23h-19.66v65.26c-1.17,7.84-.03,12.43,8.58,13.01,3.44,0,11.08-.58,11.08-.58v9.92c-3.49,0-6.8.37-10.3.37-15.44,0-20.78-5.15-20.59-21.33v-66.65h-19.66v-11.23h16.85v-30.89h11.23v30.89ZM723.03,1148.5c1.18-22.82,17.93-32.63,41.18-32.63,17.93,0,37.44,5.28,37.44,31.31v51.68c0,4.53,2.36,7.17,7.29,7.17,1.38,0,2.96-.38,3.94-.75v10c-2.76.57-4.73.75-8.08.75-12.61,0-14.58-6.79-14.58-16.98h-.4c-8.67,12.64-17.54,19.8-37.04,19.8s-34.09-8.86-34.09-28.48c0-27.35,27.78-28.29,54.58-31.31,10.25-1.13,15.96-2.45,15.96-13.2,0-16.03-12.02-19.99-26.6-19.99-15.37,0-26.8,6.79-27.19,22.63h-12.41ZM787.61,1162.54h-.38c-1.53,2.87-6.89,3.83-10.14,4.4-20.47,3.63-45.91,3.44-45.91,22.76,0,12.05,10.71,19.51,22,19.51,18.36,0,34.62-11.67,34.43-30.99v-15.69ZM824.12,1117.61h11.23v22.46h-.62c6.55-15.88,20.89-25.25,39.93-24.48v12.05c-23.34-1.15-39.31,14.92-39.31,35.39v52.87h-11.23v-98.28ZM885.89,1078.3h11.23v19.66h-11.23v-19.66ZM885.89,1117.61h11.23v98.28h-11.23v-98.28ZM916.77,1148.5c1.18-22.82,17.94-32.63,41.19-32.63,17.94,0,37.45,5.28,37.45,31.31v51.68c0,4.53,2.37,7.17,7.29,7.17,1.38,0,2.96-.38,3.94-.75v10c-2.76.57-4.73.75-8.08.75-12.61,0-14.59-6.79-14.59-16.98h-.39c-8.67,12.64-17.54,19.8-37.05,19.8s-34.1-8.86-34.1-28.48c0-27.35,27.79-28.29,54.59-31.31,10.25-1.13,15.96-2.45,15.96-13.2,0-16.03-12.02-19.99-26.61-19.99-15.37,0-26.8,6.79-27.2,22.63h-12.42ZM984.18,1162.54h-.38c-1.53,2.87-6.89,3.83-10.14,4.4-20.47,3.63-45.91,3.44-45.91,22.76,0,12.05,10.71,19.51,22,19.51,18.36,0,34.62-11.67,34.43-30.99v-15.69Z"/>
</svg>