<?xml version="1.0" encoding="UTF-8"?>
<svg id="Capa_1" xmlns="http://www.w3.org/2000/svg" version="1.1" viewBox="0 0 1057.26 1254.77">
  <!-- Generator: Adobe Illustrator 29.8.2, SVG Export Plug-In . SVG Version: 2.1.1 Build 3)  -->
  <defs>
    <style>
      .st0 {
        fill: #fff;
      }
    </style>
  </defs>
  <path class="st0" d="M469.49,146.57h0c34,0,61.56,27.56,61.56,61.56h0c0,34-27.56,61.56-61.56,61.56h0c-34,0-61.56-27.56-61.56-61.56h0c0-34,27.56-61.56,61.56-61.56ZM469.49,146.57h0c34,0,61.56-27.56,61.56-61.56h0c0-34-27.56-61.56-61.56-61.56h0c-34,0-61.56,27.56-61.56,61.56h0c0,34,27.56,61.56,61.56,61.56ZM654.16,85.01h0c0-34-27.56-61.56-61.56-61.56h0c-34,0-61.56,27.56-61.56,61.56h0c0,34,27.56,61.56,61.56,61.56h0c34,0,61.56-27.56,61.56-61.56ZM346.38,146.57h0c-34,0-61.56,27.56-61.56,61.56h0c0,34,27.56,61.56,61.56,61.56h0c34,0,61.56-27.56,61.56-61.56h0c0-34-27.56-61.56-61.56-61.56ZM469.49,392.79h0c34,0,61.56-27.56,61.56-61.56h0c0-34-27.56-61.56-61.56-61.56h0c-34,0-61.56,27.56-61.56,61.56h0c0,34,27.56,61.56,61.56,61.56ZM654.16,331.23h0c0-34-27.56-61.56-61.56-61.56h0c-34,0-61.56,27.56-61.56,61.56h0c0,34,27.56,61.56,61.56,61.56h0c34,0,61.56-27.56,61.56-61.56ZM37.88,761.89v11.38h984.02v-11.38H37.88Z"/>
  <path class="st0" d="M494.19,513.71c-6.66,0-12.92,1.23-18.8,3.68-5.87,2.45-16.61,10.77-16.61,10.77v-10.86h-19.91l-.05,133.67h19.96v-47.19c5.49,4.9,10.99,8.58,16.99,11.04,5.99,2.45,12.51,3.69,19.54,3.69,7.91,0,14.96-1.27,21.15-3.78,6.18-2.52,11.88-6.4,17.1-11.68,4.83-4.9,8.52-10.51,11.1-16.81,2.58-6.3,3.87-12.93,3.87-19.9,0-15.09-5.15-27.63-15.44-37.62-10.3-10-23.27-15-38.9-15ZM518.68,590.92c-6.97,6.69-15.32,10.04-25.06,10.04s-17.75-3.47-24.62-10.45c-6.88-6.96-10.31-15.4-10.31-25.27,0-9.2,3.5-17.25,10.49-24.13,7-6.87,15.09-10.31,24.25-10.31,9.99,0,18.43,3.42,25.35,10.27,6.9,6.85,10.36,15.33,10.36,25.45,0,9.58-3.48,17.7-10.46,24.4ZM246.2,528.16c-5.21-5.09-11.03-8.93-17.47-11.54-6.44-2.6-13.42-3.91-20.96-3.91-7.03,0-13.81,1.46-20.34,4.37-6.54,2.9-12.4,7.05-17.62,12.45-4.84,4.91-8.49,10.44-10.97,16.58-2.48,6.15-3.72,12.77-3.72,19.86s1.37,13.43,4.1,19.94c2.73,6.52,6.52,12.22,11.35,17.13,5.09,5.15,10.83,9.05,17.24,11.68,6.41,2.63,13.4,3.96,21,3.96s14.4-1.45,20.96-4.32c6.56-2.87,12.48-7.1,17.76-12.68,4.58-4.85,8.15-10.51,10.69-16.99,2.55-6.48,3.82-13.14,3.82-20s-1.37-13.24-4.1-19.54c-2.73-6.3-6.65-11.96-11.73-16.99ZM232.97,590.74c-6.5,6.69-14.56,10.04-24.16,10.04s-17.98-3.33-24.54-10c-6.56-6.66-9.84-15-9.84-24.99s3.28-18.44,9.84-25.13c6.56-6.69,14.68-10.04,24.34-10.04s17.85,3.3,24.36,9.91c6.5,6.6,9.75,14.96,9.75,25.09s-3.25,18.44-9.75,25.13ZM91.09,529.54c7.46,0,13.88,1.59,19.25,4.74,5.37,3.16,9.76,7.93,13.16,14.31h21.32c-4.13-11.94-10.74-21.21-19.84-27.81-9.11-6.6-19.85-9.91-32.23-9.91-7.92,0-15.35,1.49-22.3,4.46-6.94,2.97-13.2,7.33-18.77,13.08-5.05,5.25-8.86,11.04-11.45,17.39-2.58,6.35-3.88,13.16-3.88,20.43s1.42,14.01,4.28,20.8c2.84,6.8,6.79,12.75,11.83,17.86,5.3,5.37,11.23,9.41,17.78,12.09,6.55,2.68,13.86,4.04,21.91,4.04,12.77,0,23.61-3.24,32.52-9.71,8.91-6.49,15.62-16.01,20.14-28.58h-21.32c-3.08,6.32-7.37,11.2-12.87,14.64-5.51,3.45-11.66,5.17-18.47,5.17-10.15,0-18.64-3.48-25.45-10.43-6.81-6.95-10.22-15.64-10.22-26.06s3.35-18.96,10.07-25.97c6.71-7.02,14.88-10.52,24.52-10.52ZM383.24,515.24c-7.59,0-14.01,1.42-19.29,4.27-5.26,2.85-9.49,7.19-12.69,13.01-3.18-5.94-7.27-10.3-12.25-13.09-4.99-2.78-11.22-4.18-18.71-4.18-5.54,0-10.48,1.11-14.82,3.32-4.34,2.21-8.21,5.56-11.64,10.04v-11.29h-17.06v99.54h17.06v-51.17c0-11.63,1.9-20.22,5.69-25.76,3.79-5.54,9.66-8.31,17.62-8.31s13.34,2.76,16.88,8.27c3.54,5.51,5.31,14.36,5.31,26.54v50.44h17.06v-52.26c0-11.93,1.8-20.42,5.39-25.45,3.59-5.03,9.49-7.54,17.7-7.54,7.05,0,12.55,2.36,16.49,7.09,3.94,4.73,5.92,11.36,5.92,19.9v58.26h19.91v-61.07c0-12.3-3.51-22.14-10.53-29.49-7.03-7.36-16.37-11.05-28.04-11.05ZM939.42,529.33c-5.18-4.88-10.93-8.53-17.23-10.94-6.31-2.41-13.21-3.62-20.71-3.62-8.36,0-15.81,1.25-22.35,3.75-6.54,2.5-12.57,6.38-18.07,11.63-5.04,4.77-8.93,10.28-11.66,16.56-2.71,6.27-4.06,12.91-4.06,19.91,0,15.02,5.43,27.53,16.32,37.51,10.88,9.99,24.55,14.98,41.02,14.98,7.02,0,13.65-1.22,19.85-3.67,6.21-2.44,11.83-6.05,16.88-10.82v12.22h19.91v-99.54h-19.91v12.03ZM931.65,590.65c-7,6.88-15.08,10.31-24.26,10.31-10.04,0-18.54-3.41-25.47-10.26-6.94-6.85-10.41-15.33-10.41-25.45s3.47-17.78,10.41-24.44c6.94-6.66,15.3-10,25.1-10s17.78,3.5,24.72,10.5c6.94,7,10.41,15.4,10.41,25.22,0,9.2-3.5,17.25-10.5,24.13ZM1008.99,517.81c-3.71,2-6.99,5.05-9.85,9.16v-9.67h-17.06v99.54h17.06v-55.62c0-9.21,1.76-15.89,5.28-20.04,3.51-4.15,9.33-6.53,17.47-7.14v-19.32c-4.9.06-9.2,1.08-12.91,3.08ZM819.53,556.2c-1.66-.61-3.9-1.44-6.75-2.47-10.14-3.61-15.22-8.22-15.22-13.85,0-3.3,1.12-6.07,3.37-8.3,2.26-2.23,5.06-3.35,8.41-3.35,3.74,0,6.72,1.04,8.94,3.11,2.22,2.08,3.49,4.99,3.81,8.72h18.06c-.51-9.11-3.39-16.2-8.66-21.24-5.26-5.05-12.36-7.57-21.29-7.57s-15.8,2.88-21.73,8.63c-5.93,5.75-8.89,12.72-8.89,20.91,0,4.77.88,8.98,2.66,12.62,1.77,3.63,4.53,6.89,8.26,9.77,2.04,1.59,6.75,3.73,14.18,6.42,2.78.98,4.94,1.77,6.46,2.38,4.44,1.71,7.66,3.79,9.66,6.24,1.99,2.45,2.99,5.45,2.99,8.99,0,4.03-1.4,7.36-4.23,9.96-2.79,2.57-6.35,3.87-10.65,3.9-3.79.02-7.56-1.28-10.36-3.83-3.98-3.64-5.96-8.48-5.96-14.52h-17.69c.57,10.95,3.84,19.57,9.8,25.87,5.96,6.3,13.78,9.45,23.48,9.45s17.62-3,23.96-9c6.34-5.99,9.51-13.52,9.51-22.57,0-7.77-1.68-13.98-5.08-18.62-3.39-4.65-9.08-8.53-17.06-11.65ZM654.63,532.06c-5.1-4.93-10.16-8.82-15.15-11.67-4.99-2.84-10.23-4.85-15.69-6-8.96-1.72-17.71-1.35-26.24,1.09-8.53,2.44-16.01,6.76-22.45,12.98-5.41,5.23-9.4,11.03-11.96,17.39-2.55,6.37-3.65,13.23-3.28,20.6.26,6.86,1.76,13.28,4.49,19.31,2.73,6.01,6.67,11.51,11.83,16.49,4.97,4.8,10.82,8.56,17.52,11.3,6.7,2.75,13.56,4.21,20.58,4.37,7.46.17,14.39-.98,20.78-3.47,5.07-1.97,9.82-4.84,14.29-8.53v-25.92c-.01.35-.02.54-.02.62,0-.31-.09-1.69-.91-.45-3.15,4.78-4.4,5.86-8.75,10.06-6.1,5.88-13.24,9.11-21.46,9.71-8.21.6-15.94-1.53-23.17-6.36l61.67-59.51-2.06-1.99ZM583.06,581.73c-4.25-7.19-5.97-14.47-5.12-21.85.84-7.37,4.15-13.84,9.93-19.41,5.64-5.44,12.13-8.51,19.47-9.22,7.35-.7,14.87,1.07,22.55,5.3l-46.83,45.18ZM718.1,515.24c-6.03,0-11.39,1.05-16.07,3.13-4.69,2.09-8.98,5.38-12.88,9.86v-10.93h-17.06v99.54h17.06v-45.43c0-13.89,2.07-23.83,6.22-29.86,4.14-6.03,10.84-9.04,20.06-9.04,8.49,0,14.76,2.55,18.81,7.67,4.06,5.12,6.1,12.98,6.1,23.58v53.08h19.91v-56.99c0-14.36-3.62-25.38-10.89-33.08-7.26-7.69-17.68-11.54-31.26-11.54ZM171.54,941.06h-19.91v91.01h-11.38v-91.01h-17.06v-11.38h17.06v-9.1c-.19-17.24,4.6-29.25,23.97-29.25,3.45,0,6.33.19,10.16.78v12.04c-3.36-.59-6.13-.99-9.1-.99-13.85,0-13.45,8.7-13.65,19.78v6.74h19.91v11.38ZM265.39,1032.07h-11.38v-17.06h-.39c-6.5,13.45-19.89,21.06-35.06,21.06-25.6,0-35.65-14.82-35.65-38.22v-65.32h14.22v65.09c.58,18.02,7.38,27.51,26.79,27.51,20.97,0,30.09-19.76,30.09-40.1v-52.5h11.38v99.54ZM288.15,932.53h11.38v17.06h.38c4.41-11.98,17.64-20.09,31.63-20.09,27.8,0,36.24,14.68,36.24,38.44v64.13h-11.38v-62.38c0-17.24-5.63-30.22-25.43-30.22s-31.06,14.72-31.45,34.29v58.31h-11.38v-99.54ZM478.69,1032.07h-11.38v-19.91h.88c-5.23,13.25-21.12,22.16-35.64,22.16-30.41,0-44.94-24.6-44.94-52.89s14.53-52.88,44.94-52.88c14.92,0,29.45,7.55,34.67,21.04h2.93v-56.88h8.53v139.36ZM432.55,1024.05c25.96,0,35.06-21.89,35.06-42.62s-9.11-42.62-35.06-42.62c-23.25,0-32.74,21.89-32.74,42.62s9.49,42.62,32.74,42.62ZM498.6,963.81c1.2-23.11,18.16-33.05,41.71-33.05,18.16,0,37.92,5.35,37.92,31.71v52.34c0,4.58,2.39,7.26,7.38,7.26,1.4,0,3-.38,3.99-.76v10.13c-2.8.57-4.79.76-8.18.76-12.77,0-14.77-6.88-14.77-17.19h-.4c-8.78,12.8-17.76,20.06-37.52,20.06s-34.53-8.98-34.53-28.84c0-27.7,28.14-28.65,55.28-31.71,10.38-1.15,16.17-2.48,16.17-13.37,0-16.24-12.17-20.25-26.94-20.25-15.56,0-27.14,6.87-27.54,22.92h-12.57ZM566.86,978.03h-.39c-1.55,2.91-6.97,3.88-10.27,4.46-20.73,3.68-46.49,3.49-46.49,23.05,0,12.2,10.85,19.76,22.28,19.76,18.6,0,35.06-11.82,34.87-31.38v-15.89ZM675.44,960.97c-3.43-15.55-12.92-25.04-29.48-25.04-24.43,0-36.55,22.21-36.55,44.42s12.12,44.43,36.55,44.43c15.75,0,28.67-12.32,30.29-29.69h12.72c-3.43,25.04-19.79,40.39-43.01,40.39-31.91,0-49.28-25.24-49.28-55.13s17.37-55.13,49.28-55.13c22.21,0,39.38,11.91,42.2,35.74h-12.72ZM703.37,892.71h11.38v19.91h-11.38v-19.91ZM703.37,932.53h11.38v99.54h-11.38v-99.54ZM829.48,981.43c0,28.67-16.66,52.89-47.27,52.89s-47.27-24.21-47.27-52.89,16.66-52.88,47.27-52.88,47.27,24.22,47.27,52.88ZM747.15,981.43c0,21.31,11.62,42.62,35.06,42.62s35.06-21.31,35.06-42.62-11.62-42.62-35.06-42.62-35.06,21.31-35.06,42.62ZM780.34,918.31h-10.29l21.18-28.44h15.73l-26.62,28.44ZM848.41,932.53h11.38v17.06h.38c4.41-11.98,17.64-20.09,31.64-20.09,27.8,0,36.24,14.68,36.24,38.44v64.13h-11.38v-62.38c0-17.24-5.63-30.22-25.43-30.22s-31.06,14.72-31.45,34.29v58.31h-11.38v-99.54ZM134.57,1231.15h-11.38v-17.06h-.39c-6.5,13.45-19.89,21.06-35.06,21.06-25.6,0-35.65-14.82-35.65-38.22v-65.32h14.22v65.09c.58,18.02,7.38,27.51,26.79,27.51,20.97,0,30.09-19.76,30.09-40.1v-52.5h11.38v99.54ZM157.32,1131.61h11.38v17.06h.38c4.41-11.98,17.64-20.09,31.63-20.09,27.8,0,36.24,14.68,36.24,38.44v64.13h-11.38v-62.38c0-17.24-5.63-30.22-25.43-30.22s-31.06,14.72-31.45,34.29v58.31h-11.38v-99.54ZM262.55,1091.79h11.38v19.91h-11.38v-19.91ZM262.55,1131.61h11.38v99.54h-11.38v-99.54ZM285.81,1131.61h13.23l31.53,88.16h.39l31.14-88.16h12.26l-37.23,99.54h-12.93l-38.39-99.54ZM392.6,1185.64c.2,18.43,9.81,40.66,34.05,40.66,18.43,0,28.44-10.82,32.44-26.44h12.62c-5.41,23.43-19.03,37.05-45.06,37.05-32.85,0-46.67-25.23-46.67-54.68,0-27.24,13.82-54.68,46.67-54.68s46.47,29.04,45.46,58.08h-79.52ZM458.42,1174.27c-.58-18.41-12.01-35.64-31.77-35.64s-31,17.43-32.93,35.64h64.7ZM487.22,1131.61h11.38v22.75h-.58c6.16-16.08,19.64-25.57,37.55-24.8v12.2c-21.95-1.16-36.97,15.11-36.97,35.84v53.54h-11.38v-99.54ZM607.07,1160.05c-.56-14.56-11.77-21.1-25.21-21.1-10.46,0-22.78,4.11-22.78,16.62,0,10.46,11.95,14.19,19.98,16.25l15.68,3.55c13.44,2.05,27.45,9.9,27.45,26.7,0,20.91-20.73,28.94-38.65,28.94-22.41,0-37.72-10.46-39.58-33.98h11.77c.93,15.87,12.69,24.09,28.38,24.09,11.02,0,26.33-4.86,26.33-18.3,0-11.2-10.46-14.94-21.1-17.55l-15.12-3.36c-15.31-4.11-26.89-9.34-26.89-25.77,0-19.6,19.23-27.07,36.22-27.07,19.23,0,34.54,10.08,35.29,30.99h-11.76ZM640.8,1091.79h11.38v19.91h-11.38v-19.91ZM640.8,1131.61h11.38v99.54h-11.38v-99.54ZM694.84,1131.61h22.75v11.38h-19.91v66.1c-1.19,7.94-.03,12.59,8.69,13.17,3.49,0,11.22-.58,11.22-.58v10.04c-3.54,0-6.89.37-10.43.37-15.64,0-21.04-5.21-20.86-21.6v-67.5h-19.91v-11.38h17.06v-31.28h11.38v31.28ZM731.81,1162.89c1.2-23.11,18.16-33.05,41.71-33.05,18.16,0,37.92,5.35,37.92,31.71v52.34c0,4.58,2.39,7.26,7.38,7.26,1.4,0,2.99-.38,3.99-.76v10.13c-2.8.57-4.79.76-8.18.76-12.77,0-14.77-6.88-14.77-17.19h-.4c-8.78,12.8-17.76,20.06-37.52,20.06s-34.53-8.98-34.53-28.84c0-27.7,28.14-28.65,55.28-31.71,10.38-1.15,16.17-2.48,16.17-13.37,0-16.24-12.17-20.25-26.94-20.25-15.57,0-27.14,6.87-27.54,22.92h-12.57ZM797.22,1177.11h-.39c-1.55,2.91-6.98,3.88-10.27,4.46-20.73,3.68-46.49,3.49-46.49,23.05,0,12.2,10.85,19.76,22.28,19.76,18.6,0,35.06-11.82,34.87-31.38v-15.89ZM834.19,1131.61h11.38v22.75h-.62c6.64-16.08,21.15-25.57,40.44-24.8v12.2c-23.64-1.16-39.82,15.11-39.82,35.84v53.54h-11.38v-99.54ZM896.76,1091.79h11.38v19.91h-11.38v-19.91ZM896.76,1131.61h11.38v99.54h-11.38v-99.54ZM928.03,1162.89c1.2-23.11,18.17-33.05,41.72-33.05,18.17,0,37.93,5.35,37.93,31.71v52.34c0,4.58,2.4,7.26,7.39,7.26,1.4,0,2.99-.38,3.99-.76v10.13c-2.79.57-4.79.76-8.18.76-12.78,0-14.77-6.88-14.77-17.19h-.4c-8.78,12.8-17.77,20.06-37.53,20.06s-34.53-8.98-34.53-28.84c0-27.7,28.15-28.65,55.29-31.71,10.38-1.15,16.17-2.48,16.17-13.37,0-16.24-12.17-20.25-26.95-20.25-15.57,0-27.15,6.87-27.54,22.92h-12.58ZM996.3,1177.11h-.39c-1.55,2.91-6.97,3.88-10.27,4.46-20.73,3.68-46.49,3.49-46.49,23.05,0,12.2,10.85,19.76,22.28,19.76,18.6,0,35.06-11.82,34.87-31.38v-15.89Z"/>
</svg>